# xmcd CD database file
# Copyright (C) 1993-1998 Ti Kan
#
# Track frame offsets:
#  150
#  13530
#  27990
#  43437
#  61772
#  80000
#  92605
#  109582
#  132340
#  152420
#  172605
#  192965
#  208465
#  225165
#
# Disc length: 3239 seconds
#
# Revision: 1
# Processed by: cddbd v1.4b41PL1 Copyright (c) Steve Scherf et al.
# Submitted via: CDWizzard Release:4.35
#
DISCID=aa0ca50e
DTITLE=Margie Joseph - Best of Margie Joseph  The Atlantic Sessions
DYEAR=1900
DGENRE=
TTITLE0=Let's Go Somewere and Love
TTITLE1=Touch Your Woman
TTITLE2=Let's Stay Together
TTITLE3=Come Lay Some Lovin' On Me
TTITLE4=My Love
TTITLE5=I Can't Move No Mountains
TTITLE6=Words (Are Impossible)
TTITLE7=Stay Still
TTITLE8=What's Come Over Me (with Blue Magic)
TTITLE9=Hear the Words, Feel the Feeling
TTITLE10=Don't Turn the Lights Off
TTITLE11=Come On Back to Me, Lover
TTITLE12=I Feel His Love Getting Stronger
TTITLE13=Ready for the Night
EXTD=
EXTT0=
EXTT1=
EXTT2=
EXTT3=
EXTT4=
EXTT5=
EXTT6=
EXTT7=
EXTT8=
EXTT9=
EXTT10=
EXTT11=
EXTT12=
EXTT13=
PLAYORDER=
